<mxfile host="Electron" modified="2024-04-16T20:55:38.681Z" agent="Mozilla/5.0 (Windows NT 10.0; Win64; x64) AppleWebKit/537.36 (KHTML, like Gecko) draw.io/22.1.2 Chrome/114.0.5735.289 Electron/25.9.4 Safari/537.36" etag="Nly45q-KD-BZDVb-qlUu" version="22.1.2" type="device">
  <diagram name="Página-1" id="SQmglUNdDcgBvR4GJ8pa">
    <mxGraphModel dx="1195" dy="697" grid="1" gridSize="10" guides="1" tooltips="1" connect="1" arrows="1" fold="1" page="1" pageScale="1" pageWidth="827" pageHeight="1169" math="0" shadow="0">
      <root>
        <mxCell id="0" />
        <mxCell id="1" parent="0" />
        <mxCell id="SOH1SEfHEnXgwC5oY0Ul-21" value="" style="shape=note;size=20;whiteSpace=wrap;html=1;" vertex="1" parent="1">
          <mxGeometry x="60" y="380" width="250" height="220" as="geometry" />
        </mxCell>
        <mxCell id="SOH1SEfHEnXgwC5oY0Ul-10" style="edgeStyle=orthogonalEdgeStyle;rounded=0;orthogonalLoop=1;jettySize=auto;html=1;entryX=0.5;entryY=0;entryDx=0;entryDy=0;endArrow=ERoneToMany;endFill=0;startArrow=ERmandOne;startFill=0;" edge="1" parent="1" source="SOH1SEfHEnXgwC5oY0Ul-2" target="SOH1SEfHEnXgwC5oY0Ul-4">
          <mxGeometry relative="1" as="geometry" />
        </mxCell>
        <mxCell id="SOH1SEfHEnXgwC5oY0Ul-11" style="edgeStyle=orthogonalEdgeStyle;rounded=0;orthogonalLoop=1;jettySize=auto;html=1;entryX=1;entryY=0.5;entryDx=0;entryDy=0;" edge="1" parent="1" source="SOH1SEfHEnXgwC5oY0Ul-2" target="SOH1SEfHEnXgwC5oY0Ul-6">
          <mxGeometry relative="1" as="geometry" />
        </mxCell>
        <mxCell id="SOH1SEfHEnXgwC5oY0Ul-12" style="edgeStyle=orthogonalEdgeStyle;rounded=0;orthogonalLoop=1;jettySize=auto;html=1;exitX=0;exitY=0;exitDx=0;exitDy=0;entryX=1;entryY=0.5;entryDx=0;entryDy=0;" edge="1" parent="1" source="SOH1SEfHEnXgwC5oY0Ul-2" target="SOH1SEfHEnXgwC5oY0Ul-5">
          <mxGeometry relative="1" as="geometry" />
        </mxCell>
        <mxCell id="SOH1SEfHEnXgwC5oY0Ul-26" style="edgeStyle=orthogonalEdgeStyle;rounded=0;orthogonalLoop=1;jettySize=auto;html=1;exitX=0;exitY=1;exitDx=0;exitDy=0;entryX=1;entryY=0;entryDx=0;entryDy=0;dashed=1;" edge="1" parent="1" source="SOH1SEfHEnXgwC5oY0Ul-2" target="SOH1SEfHEnXgwC5oY0Ul-25">
          <mxGeometry relative="1" as="geometry">
            <Array as="points">
              <mxPoint x="320" y="540" />
              <mxPoint x="280" y="540" />
            </Array>
          </mxGeometry>
        </mxCell>
        <mxCell id="SOH1SEfHEnXgwC5oY0Ul-2" value="Cliente" style="whiteSpace=wrap;html=1;align=center;" vertex="1" parent="1">
          <mxGeometry x="320" y="480" width="100" height="40" as="geometry" />
        </mxCell>
        <mxCell id="SOH1SEfHEnXgwC5oY0Ul-19" style="edgeStyle=orthogonalEdgeStyle;rounded=0;orthogonalLoop=1;jettySize=auto;html=1;exitX=0;exitY=0.5;exitDx=0;exitDy=0;entryX=1;entryY=0.5;entryDx=0;entryDy=0;" edge="1" parent="1" source="SOH1SEfHEnXgwC5oY0Ul-4" target="SOH1SEfHEnXgwC5oY0Ul-9">
          <mxGeometry relative="1" as="geometry" />
        </mxCell>
        <mxCell id="SOH1SEfHEnXgwC5oY0Ul-4" value="Pedido" style="shape=ext;margin=3;double=1;whiteSpace=wrap;html=1;align=center;" vertex="1" parent="1">
          <mxGeometry x="320" y="600" width="100" height="40" as="geometry" />
        </mxCell>
        <mxCell id="SOH1SEfHEnXgwC5oY0Ul-5" value="ID_Cliente" style="ellipse;whiteSpace=wrap;html=1;align=center;fontStyle=4;" vertex="1" parent="1">
          <mxGeometry x="190" y="420" width="100" height="40" as="geometry" />
        </mxCell>
        <mxCell id="SOH1SEfHEnXgwC5oY0Ul-13" style="edgeStyle=orthogonalEdgeStyle;rounded=0;orthogonalLoop=1;jettySize=auto;html=1;exitX=0;exitY=0.5;exitDx=0;exitDy=0;entryX=1;entryY=0.5;entryDx=0;entryDy=0;" edge="1" parent="1" source="SOH1SEfHEnXgwC5oY0Ul-6" target="SOH1SEfHEnXgwC5oY0Ul-7">
          <mxGeometry relative="1" as="geometry" />
        </mxCell>
        <mxCell id="SOH1SEfHEnXgwC5oY0Ul-14" style="edgeStyle=orthogonalEdgeStyle;rounded=0;orthogonalLoop=1;jettySize=auto;html=1;exitX=0;exitY=1;exitDx=0;exitDy=0;entryX=1;entryY=0.5;entryDx=0;entryDy=0;" edge="1" parent="1" source="SOH1SEfHEnXgwC5oY0Ul-6" target="SOH1SEfHEnXgwC5oY0Ul-8">
          <mxGeometry relative="1" as="geometry" />
        </mxCell>
        <mxCell id="SOH1SEfHEnXgwC5oY0Ul-6" value="Dirección" style="ellipse;whiteSpace=wrap;html=1;align=center;" vertex="1" parent="1">
          <mxGeometry x="190" y="470" width="100" height="40" as="geometry" />
        </mxCell>
        <mxCell id="SOH1SEfHEnXgwC5oY0Ul-7" value="Calle" style="ellipse;whiteSpace=wrap;html=1;align=center;" vertex="1" parent="1">
          <mxGeometry x="70" y="460" width="100" height="40" as="geometry" />
        </mxCell>
        <mxCell id="SOH1SEfHEnXgwC5oY0Ul-8" value="Número" style="ellipse;whiteSpace=wrap;html=1;align=center;" vertex="1" parent="1">
          <mxGeometry x="70" y="500" width="100" height="40" as="geometry" />
        </mxCell>
        <mxCell id="SOH1SEfHEnXgwC5oY0Ul-9" value="Num_pedido" style="ellipse;whiteSpace=wrap;html=1;align=center;fontStyle=4;" vertex="1" parent="1">
          <mxGeometry x="170" y="630" width="100" height="40" as="geometry" />
        </mxCell>
        <mxCell id="SOH1SEfHEnXgwC5oY0Ul-15" value="Att compuesto" style="text;html=1;align=center;verticalAlign=middle;resizable=0;points=[];autosize=1;strokeColor=none;fillColor=none;" vertex="1" parent="1">
          <mxGeometry x="190" y="510" width="100" height="30" as="geometry" />
        </mxCell>
        <mxCell id="SOH1SEfHEnXgwC5oY0Ul-16" value="PK" style="text;html=1;align=center;verticalAlign=middle;resizable=0;points=[];autosize=1;strokeColor=none;fillColor=none;" vertex="1" parent="1">
          <mxGeometry x="155" y="420" width="40" height="30" as="geometry" />
        </mxCell>
        <mxCell id="SOH1SEfHEnXgwC5oY0Ul-17" value="Entidad fuerte&lt;br&gt;Existe por si misma" style="text;html=1;align=center;verticalAlign=middle;resizable=0;points=[];autosize=1;strokeColor=none;fillColor=none;" vertex="1" parent="1">
          <mxGeometry x="310" y="440" width="130" height="40" as="geometry" />
        </mxCell>
        <mxCell id="SOH1SEfHEnXgwC5oY0Ul-18" value="Entidad débil&lt;br&gt;depende de otra entidad" style="text;html=1;align=center;verticalAlign=middle;resizable=0;points=[];autosize=1;strokeColor=none;fillColor=none;" vertex="1" parent="1">
          <mxGeometry x="295" y="630" width="150" height="40" as="geometry" />
        </mxCell>
        <mxCell id="SOH1SEfHEnXgwC5oY0Ul-20" value="Atributos" style="text;html=1;align=center;verticalAlign=middle;resizable=0;points=[];autosize=1;strokeColor=none;fillColor=none;" vertex="1" parent="1">
          <mxGeometry x="85" y="440" width="70" height="30" as="geometry" />
        </mxCell>
        <mxCell id="SOH1SEfHEnXgwC5oY0Ul-22" value="Dominio&lt;br&gt;Att permitidos" style="text;html=1;align=center;verticalAlign=middle;resizable=0;points=[];autosize=1;strokeColor=none;fillColor=none;" vertex="1" parent="1">
          <mxGeometry x="55" y="390" width="100" height="40" as="geometry" />
        </mxCell>
        <mxCell id="SOH1SEfHEnXgwC5oY0Ul-23" value="Realiza" style="shape=rhombus;perimeter=rhombusPerimeter;whiteSpace=wrap;html=1;align=center;" vertex="1" parent="1">
          <mxGeometry x="310" y="530" width="120" height="60" as="geometry" />
        </mxCell>
        <mxCell id="SOH1SEfHEnXgwC5oY0Ul-24" value="Relación" style="text;html=1;align=center;verticalAlign=middle;resizable=0;points=[];autosize=1;strokeColor=none;fillColor=none;" vertex="1" parent="1">
          <mxGeometry x="379" y="520" width="70" height="30" as="geometry" />
        </mxCell>
        <mxCell id="SOH1SEfHEnXgwC5oY0Ul-29" style="edgeStyle=orthogonalEdgeStyle;rounded=0;orthogonalLoop=1;jettySize=auto;html=1;exitX=0;exitY=0.5;exitDx=0;exitDy=0;entryX=1;entryY=0.5;entryDx=0;entryDy=0;" edge="1" parent="1" source="SOH1SEfHEnXgwC5oY0Ul-25" target="SOH1SEfHEnXgwC5oY0Ul-28">
          <mxGeometry relative="1" as="geometry" />
        </mxCell>
        <mxCell id="SOH1SEfHEnXgwC5oY0Ul-25" value="Fecha_Nacimiento" style="ellipse;whiteSpace=wrap;html=1;align=center;" vertex="1" parent="1">
          <mxGeometry x="195" y="540" width="100" height="40" as="geometry" />
        </mxCell>
        <mxCell id="SOH1SEfHEnXgwC5oY0Ul-28" value="edad" style="ellipse;whiteSpace=wrap;html=1;align=center;dashed=1;" vertex="1" parent="1">
          <mxGeometry x="70" y="545" width="100" height="40" as="geometry" />
        </mxCell>
        <mxCell id="SOH1SEfHEnXgwC5oY0Ul-30" value="Atributo derivado&lt;br&gt;a partir de Fecha_Nacimiento" style="text;html=1;align=center;verticalAlign=middle;resizable=0;points=[];autosize=1;strokeColor=none;fillColor=none;" vertex="1" parent="1">
          <mxGeometry x="30" y="580" width="180" height="40" as="geometry" />
        </mxCell>
        <mxCell id="SOH1SEfHEnXgwC5oY0Ul-32" value="Atributo opcional" style="text;html=1;align=center;verticalAlign=middle;resizable=0;points=[];autosize=1;strokeColor=none;fillColor=none;" vertex="1" parent="1">
          <mxGeometry x="190" y="580" width="110" height="30" as="geometry" />
        </mxCell>
        <mxCell id="SOH1SEfHEnXgwC5oY0Ul-33" value="&lt;span style=&quot;border-bottom: 1px dotted&quot;&gt;mail&lt;/span&gt;" style="ellipse;whiteSpace=wrap;html=1;align=center;" vertex="1" parent="1">
          <mxGeometry x="190" y="380" width="100" height="40" as="geometry" />
        </mxCell>
        <mxCell id="SOH1SEfHEnXgwC5oY0Ul-34" style="edgeStyle=orthogonalEdgeStyle;rounded=0;orthogonalLoop=1;jettySize=auto;html=1;exitX=0;exitY=0;exitDx=0;exitDy=0;entryX=0;entryY=0;entryDx=240;entryDy=10;entryPerimeter=0;" edge="1" parent="1" source="SOH1SEfHEnXgwC5oY0Ul-2" target="SOH1SEfHEnXgwC5oY0Ul-21">
          <mxGeometry relative="1" as="geometry" />
        </mxCell>
        <mxCell id="SOH1SEfHEnXgwC5oY0Ul-35" value="Clave alternativa" style="text;html=1;align=center;verticalAlign=middle;resizable=0;points=[];autosize=1;strokeColor=none;fillColor=none;" vertex="1" parent="1">
          <mxGeometry x="185" y="360" width="110" height="30" as="geometry" />
        </mxCell>
      </root>
    </mxGraphModel>
  </diagram>
</mxfile>
